# xmcd
# 
# Track frame offsets:
#     150
#     37135
#     101070
#     164372
# 
# Disc length: 2361
# 
# Revision: 5
# Processed by: cddbd v1.5.2PL0 Copyright (c) Steve Scherf et al.
# Submitted via: fre:ac v1.0.17
# 
DISCID=30093704
DTITLE=Harmonium - L'heptade
DYEAR=1976
DGENRE=Folk/Rock
TTITLE0=Le Corridor
TTITLE1=Lumières de vie
TTITLE2=Comme un sage
TTITLE3=Épilogue
EXTD=
EXTT0=
EXTT1=
EXTT2=
EXTT3=
PLAYORDER=
